<svg width="318" height="53" viewBox="0 0 318 53" fill="none" xmlns="http://www.w3.org/2000/svg">
<rect x="1.71338" y="1.74487" width="314.573" height="49.6325" rx="9" fill="#01526B"/>
<rect x="1.71338" y="1.74487" width="314.573" height="49.6325" rx="9" stroke="white" stroke-width="2"/>
<path d="M110.108 27.665L110.124 30.817C110.124 31.473 110.092 31.857 109.996 32.177C109.852 32.737 109.276 33.105 108.524 33.105C107.516 33.105 106.3 32.657 105.5 31.969C104.924 31.473 104.62 30.849 104.62 30.161C104.62 29.409 105.116 28.561 105.996 27.793C106.572 27.297 107.276 26.881 108.332 26.433L108.316 23.969C108.188 23.969 108.188 23.969 107.66 24.001C107.42 24.017 107.196 24.017 106.796 24.017C106.556 24.017 106.108 24.001 105.916 24.001C105.708 23.985 105.564 23.985 105.516 23.985C105.452 23.985 105.324 23.985 105.18 24.001L105.164 22.209C105.612 22.305 106.252 22.353 107.1 22.353C107.26 22.353 107.436 22.353 107.66 22.337C108.044 22.321 108.124 22.321 108.3 22.321V21.265C108.3 20.353 108.284 19.937 108.204 19.425H110.204C110.124 19.937 110.108 20.273 110.108 21.169V22.193C111.308 22.049 112.38 21.841 113.196 21.585L113.26 23.377C112.972 23.425 112.668 23.473 111.564 23.665C111.036 23.761 110.716 23.809 110.108 23.873V25.953C111.196 25.633 112.204 25.505 113.372 25.505C116.044 25.505 117.948 27.137 117.948 29.409C117.948 31.489 116.396 33.057 114.316 33.057C113.02 33.057 112.108 32.433 111.692 31.281C111.484 30.737 111.42 30.209 111.42 29.233C112.236 29.009 112.508 28.897 113.196 28.529C113.164 28.833 113.164 28.977 113.164 29.233C113.164 29.905 113.228 30.337 113.388 30.641C113.564 30.977 113.948 31.185 114.396 31.185C115.34 31.185 116.012 30.433 116.012 29.409C116.012 28.033 114.892 27.137 113.18 27.137C112.22 27.137 111.244 27.313 110.108 27.665ZM108.316 30.577V28.241C107.116 28.881 106.412 29.585 106.412 30.161C106.412 30.433 106.572 30.673 106.94 30.897C107.26 31.121 107.66 31.249 107.964 31.249C108.236 31.249 108.316 31.105 108.316 30.577ZM118.652 23.825L117.18 25.009C116.38 23.745 115.212 22.481 113.98 21.553L115.484 20.545C116.876 21.617 117.804 22.577 118.652 23.825ZM125.404 25.073V31.841C125.404 32.801 125.436 33.393 125.5 33.809H123.628C123.692 33.329 123.724 32.817 123.724 31.825V21.345C123.724 20.497 123.708 20.049 123.66 19.537C124.156 19.585 124.524 19.601 125.292 19.601H128.124C128.956 19.601 129.324 19.585 129.756 19.537C129.724 20.049 129.708 20.417 129.708 21.041V23.681C129.708 24.401 129.724 24.769 129.756 25.121C129.372 25.089 128.812 25.073 128.284 25.073H125.404ZM125.404 20.913V21.745H128.14V20.913H125.404ZM125.404 22.977V23.825H128.14V22.977H125.404ZM137.1 21.329V31.841C137.1 32.721 136.956 33.137 136.54 33.393C136.22 33.585 135.788 33.649 134.86 33.649C134.604 33.649 134.428 33.649 133.372 33.585C133.26 32.817 133.18 32.481 132.924 31.889C133.596 31.969 134.364 32.033 134.892 32.033C135.34 32.033 135.42 31.969 135.42 31.617V25.073H132.332C131.804 25.073 131.228 25.089 130.876 25.121C130.892 24.689 130.908 24.369 130.908 23.681V21.041C130.908 20.433 130.892 20.001 130.86 19.537C131.34 19.585 131.692 19.601 132.492 19.601H135.532C136.3 19.601 136.684 19.585 137.18 19.537C137.116 20.065 137.1 20.545 137.1 21.329ZM132.492 20.913V21.745H135.42V20.913H132.492ZM132.492 22.977V23.825H135.42V22.977H132.492ZM133.5 27.281V30.161C133.5 30.625 133.516 30.945 133.548 31.249C133.212 31.217 132.876 31.201 132.412 31.201H128.844V32.273H127.148C127.196 31.825 127.228 31.329 127.228 30.721V27.297C127.228 26.865 127.212 26.513 127.18 26.177C127.532 26.209 127.9 26.225 128.364 26.225H132.316C132.812 26.225 133.212 26.209 133.548 26.177C133.516 26.497 133.5 26.817 133.5 27.281ZM128.844 27.649V29.745H131.884V27.649H128.844ZM142.972 20.801H145.164C145.084 21.393 145.036 22.177 145.036 23.233C145.036 24.625 145.164 26.545 145.34 27.521C145.612 29.185 146.124 30.209 146.636 30.209C146.876 30.209 147.1 29.969 147.292 29.521C147.676 28.657 147.964 27.697 148.14 26.625C148.7 27.265 148.956 27.505 149.74 28.081C148.908 31.201 147.98 32.497 146.62 32.497C145.548 32.497 144.684 31.713 144.044 30.177C143.388 28.577 143.1 26.257 143.036 21.825C143.02 21.265 143.02 21.153 142.972 20.801ZM151.052 22.321L152.732 21.521C154.748 23.937 155.868 26.609 156.332 30.129L154.348 30.881C154.252 29.377 153.884 27.713 153.324 26.257C152.78 24.801 152.012 23.505 151.052 22.321ZM164.028 25.521V24.417C162.988 25.057 162.572 25.281 161.468 25.761C161.196 25.089 161.004 24.753 160.54 24.129C162.028 23.553 163.388 22.785 164.62 21.825C165.724 20.945 166.476 20.145 167.132 19.153H169.036C169.724 20.177 170.444 20.897 171.724 21.857C172.972 22.801 174.172 23.441 175.804 24.049C175.388 24.721 175.228 25.025 174.924 25.809C173.788 25.297 173.292 25.041 172.316 24.401V25.521C171.916 25.473 171.516 25.457 170.876 25.457H165.404C164.892 25.457 164.444 25.473 164.028 25.521ZM165.42 23.793H170.86C171.052 23.793 171.116 23.793 171.404 23.793C169.996 22.785 169.116 21.953 168.108 20.673C167.148 22.049 166.444 22.737 164.972 23.793C165.164 23.793 165.244 23.793 165.42 23.793ZM164.636 33.777H162.732C162.796 33.265 162.828 32.785 162.828 32.081V28.353C162.828 27.697 162.796 27.233 162.748 26.769C163.1 26.817 163.484 26.833 164.124 26.833H172.124C172.764 26.833 173.148 26.817 173.516 26.769C173.452 27.217 173.436 27.665 173.436 28.353V32.097C173.436 32.833 173.452 33.281 173.532 33.777H171.628V32.961H164.636V33.777ZM164.636 28.385V31.393H171.628V28.385H164.636ZM180.668 30.609L179.74 28.769C180.108 28.513 180.732 27.969 182.636 26.209C182.668 25.233 182.668 25.217 182.7 23.905C180.764 24.049 180.764 24.049 180.268 24.145L180.156 22.337C180.412 22.353 180.54 22.369 180.684 22.369C180.972 22.369 181.852 22.321 182.748 22.257C182.78 21.841 182.796 21.633 182.796 21.057C182.796 20.753 182.812 20.529 182.812 20.385C182.812 20.305 182.812 20.241 182.812 20.225C182.812 19.969 182.796 19.841 182.748 19.521L184.812 19.537C184.716 19.953 184.716 19.969 184.652 21.073C184.636 21.377 184.636 21.377 184.604 21.825C184.604 21.953 184.604 21.953 184.604 22.113C184.716 22.081 184.748 22.081 184.828 22.033L185.436 22.689C185.212 22.881 185.1 23.009 184.524 23.729C184.492 24.417 184.476 24.769 184.46 24.817L184.492 24.801C184.556 24.737 184.668 24.641 184.876 24.497C186.62 23.233 187.916 22.737 189.484 22.737C190.636 22.737 191.804 23.233 192.604 24.049C193.404 24.881 193.836 26.049 193.836 27.345C193.836 29.361 192.876 31.057 191.292 31.873C190.476 32.273 189.532 32.481 188.444 32.481C187.628 32.481 186.876 32.369 186.06 32.129C186.06 31.281 186.012 30.929 185.756 30.049C186.652 30.433 187.644 30.641 188.604 30.641C190.524 30.641 191.868 29.281 191.868 27.329C191.868 25.617 190.812 24.545 189.132 24.545C187.804 24.545 186.236 25.361 184.476 26.961L184.46 28.625C184.46 30.913 184.508 32.705 184.588 33.409H182.508C182.588 32.929 182.604 32.465 182.604 30.849V29.425C182.604 28.977 182.604 28.801 182.636 28.481H182.604C182.492 28.641 182.38 28.769 181.9 29.233C181.324 29.793 180.876 30.289 180.668 30.609ZM211.612 30.465L211.74 32.609C211.564 32.625 211.564 32.625 211.02 32.689C209.852 32.817 207.74 32.929 206.684 32.929C203.692 32.929 202.396 32.353 201.916 30.817C201.692 30.097 201.628 29.201 201.628 26.449C201.628 26.209 201.628 26.145 201.644 24.897C199.404 25.057 199.404 25.057 198.684 25.185L198.556 23.313C198.78 23.329 198.94 23.329 199.02 23.329C199.164 23.329 200.044 23.281 201.628 23.185C201.644 22.929 201.644 22.785 201.644 22.689C201.644 20.993 201.628 20.545 201.532 19.969H203.676C203.58 20.561 203.58 20.561 203.532 23.089C205.772 22.977 205.772 22.977 208.156 22.865C208.156 20.321 208.156 20.321 208.06 19.697H210.06C209.996 20.209 209.98 20.401 209.98 20.801V21.809C209.98 22.049 209.98 22.193 209.98 22.289C209.98 22.481 209.98 22.593 209.98 22.625C209.98 22.657 209.98 22.721 209.98 22.801C212.556 22.721 212.556 22.721 213.084 22.657L213.116 24.561C212.748 24.513 212.604 24.513 212.204 24.513C211.644 24.513 210.732 24.529 209.98 24.529C209.964 26.145 209.82 27.345 209.564 27.921C209.212 28.721 208.556 29.121 207.612 29.121C206.86 29.121 206.156 28.961 205.324 28.577C205.34 28.257 205.34 28.161 205.34 27.937C205.34 27.505 205.308 27.201 205.228 26.625C206.092 27.121 206.844 27.409 207.324 27.409C207.74 27.409 207.916 27.201 208.012 26.577C208.092 26.113 208.14 25.473 208.156 24.577C205.724 24.673 205.724 24.673 203.5 24.801C203.5 25.009 203.5 25.025 203.5 25.233C203.5 25.313 203.5 25.313 203.484 26.161C203.484 26.257 203.484 26.417 203.484 26.497C203.484 27.329 203.532 29.073 203.564 29.393C203.692 30.737 204.38 31.073 206.988 31.073C209.068 31.073 210.572 30.881 211.612 30.465Z" fill="white"/>
<path d="M284.565 26.9146C284.761 26.7193 284.761 26.4027 284.565 26.2075L281.383 23.0255C281.188 22.8302 280.872 22.8302 280.676 23.0255C280.481 23.2208 280.481 23.5374 280.676 23.7326L283.505 26.561L280.676 29.3895C280.481 29.5847 280.481 29.9013 280.676 30.0966C280.872 30.2918 281.188 30.2918 281.383 30.0966L284.565 26.9146ZM233.182 27.061L284.212 27.061L284.212 26.061L233.182 26.061L233.182 27.061Z" fill="white"/>
<path d="M293.162 26.0447C293.162 34.0808 287.21 40.5181 279.959 40.5181C272.709 40.5181 266.757 34.0808 266.757 26.0447C266.757 18.0086 272.709 11.5713 279.959 11.5713C287.21 11.5713 293.162 18.0086 293.162 26.0447Z" stroke="white"/>
</svg>
