<svg width="335" height="50" viewBox="0 0 335 50" fill="none" xmlns="http://www.w3.org/2000/svg">
<rect x="1" y="1" width="333" height="48" rx="9" fill="#BB913C" fill-opacity="0.8"/>
<rect x="1" y="1" width="333" height="48" rx="9" stroke="white" stroke-width="2"/>
<path d="M132.32 22.488L132.304 23.864C132.304 23.928 132.32 24.056 132.32 24.248C132.672 24.984 132.832 25.64 132.832 26.504C132.832 28.248 132 29.752 130.448 30.824C129.776 31.288 129.04 31.624 127.552 32.136C127.104 31.144 126.944 30.904 126.416 30.328C127.728 30.072 128.384 29.848 129.136 29.4C130.224 28.776 130.864 27.96 130.992 27.064C130.528 27.8 129.696 28.2 128.64 28.2C127.904 28.2 127.328 28.024 126.784 27.624C126.032 27.08 125.68 26.376 125.68 25.464C125.68 23.768 127.008 22.552 128.864 22.552C129.552 22.552 130.16 22.728 130.528 23.032C130.512 22.952 130.512 22.952 130.512 22.84C130.496 22.808 130.496 21.912 130.496 21.48C128.208 21.544 126.704 21.592 126 21.64C123.584 21.816 123.584 21.816 123.152 21.88L123.088 19.976C123.44 20.008 123.584 20.008 123.872 20.008C124.272 20.008 124.528 20.008 126.592 19.928C127.632 19.896 127.792 19.896 129.104 19.864C129.632 19.848 129.632 19.848 130.464 19.816C130.448 18.296 130.448 18.296 130.368 17.88L132.384 17.864C132.32 18.36 132.32 18.392 132.304 19.768C135.088 19.752 136.336 19.72 136.928 19.656L136.944 21.496C136.352 21.448 135.584 21.416 134.256 21.416C133.872 21.416 133.584 21.416 132.32 21.448V22.488ZM130.48 25.128C130.48 24.456 129.92 24.024 129.04 24.024C128.224 24.024 127.552 24.6 127.552 25.304C127.552 26.04 128.112 26.568 128.912 26.568C129.824 26.568 130.48 25.96 130.48 25.128ZM141.675 27.976L140.379 25.96C141.051 25.496 142.027 24.408 143.867 22.04C144.283 21.528 144.555 21.24 144.859 21.032C145.291 20.712 145.739 20.552 146.139 20.552C146.619 20.552 147.099 20.76 147.579 21.16C147.803 21.352 148.155 21.72 148.651 22.312C150.635 24.696 154.251 28.152 155.179 28.552L154.203 30.824C154.043 30.632 154.011 30.6 153.739 30.36C151.467 28.328 149.339 26.152 147.515 24.008C146.523 22.872 146.427 22.792 146.123 22.792C145.867 22.792 145.707 22.936 145.163 23.656C143.931 25.304 143.067 26.376 142.011 27.528C141.819 27.752 141.803 27.768 141.675 27.976ZM149.963 20.44L151.083 19.88C151.771 20.632 152.219 21.24 152.763 22.232L151.643 22.824C151.115 21.848 150.651 21.208 149.963 20.44ZM154.667 21.192L153.563 21.816C153.083 20.936 152.555 20.184 151.931 19.496L153.003 18.936C153.723 19.672 154.171 20.28 154.667 21.192ZM160.011 21.96L159.899 19.88C160.251 19.896 160.427 19.896 160.507 19.896C160.795 19.896 160.795 19.896 163.147 19.736C164.043 19.688 166.699 19.544 171.131 19.336C172.443 19.272 172.683 19.256 172.971 19.176L173.083 21.224C172.907 21.208 172.907 21.208 172.747 21.208C171.787 21.208 170.603 21.528 169.579 22.072C167.547 23.128 166.347 24.728 166.347 26.344C166.347 27.592 167.131 28.552 168.475 28.952C169.259 29.192 170.283 29.368 170.859 29.368C170.875 29.368 171.019 29.368 171.179 29.352L170.891 31.528C170.699 31.48 170.619 31.464 170.347 31.432C168.587 31.208 167.579 30.92 166.603 30.376C165.131 29.544 164.315 28.184 164.315 26.52C164.315 25.16 164.859 23.816 165.835 22.744C166.443 22.088 167.019 21.672 168.059 21.144C166.763 21.336 166.139 21.384 162.667 21.64C161.595 21.72 160.635 21.832 160.011 21.96ZM182.811 27.608H181.899C181.131 27.608 180.587 27.624 180.171 27.656C180.235 27.192 180.251 26.696 180.251 25.96V20.12C180.251 19.24 180.219 18.536 180.171 18.12C180.651 18.184 181.115 18.2 181.851 18.2H189.227C189.963 18.2 190.459 18.184 190.923 18.12C190.875 18.504 190.843 19.24 190.843 20.12V25.96C190.843 26.728 190.859 27.208 190.923 27.656C190.507 27.624 189.883 27.608 189.227 27.608H187.851V30.072C187.851 30.52 187.995 30.568 189.243 30.568C190.475 30.568 190.795 30.504 190.987 30.232C191.147 30.008 191.227 29.4 191.275 28.184C191.931 28.536 192.315 28.696 192.923 28.856C192.763 30.632 192.603 31.224 192.203 31.608C191.755 32.024 191.067 32.152 189.259 32.152C186.603 32.152 186.123 31.928 186.123 30.728V27.608H184.683C184.491 28.84 183.979 29.816 183.163 30.568C182.155 31.512 180.939 32.072 179.099 32.488C178.827 31.816 178.635 31.48 178.171 30.92C179.675 30.648 180.523 30.36 181.291 29.864C182.155 29.304 182.619 28.616 182.811 27.608ZM181.931 19.8V20.84H189.147V19.8H181.931ZM181.931 22.344V23.416H189.147V22.344H181.931ZM181.931 24.92V26.056H189.147V24.92H181.931ZM202.699 24.36L202.731 24.392C204.187 23.816 204.891 23.656 206.091 23.656C208.827 23.656 210.587 25.064 210.587 27.256C210.587 28.776 209.835 29.992 208.411 30.792C207.371 31.384 206.011 31.704 204.539 31.704C203.195 31.704 202.075 31.448 201.435 30.968C200.827 30.52 200.475 29.848 200.475 29.128C200.475 27.8 201.627 26.84 203.227 26.84C204.347 26.84 205.323 27.304 205.995 28.152C206.315 28.552 206.491 28.904 206.731 29.592C208.059 29.096 208.635 28.408 208.635 27.272C208.635 26.024 207.403 25.208 205.467 25.208C203.131 25.208 200.795 26.152 198.875 27.896L197.787 26.168C198.347 25.896 198.987 25.464 200.043 24.664C201.531 23.528 203.611 21.736 204.827 20.504C204.859 20.472 205.019 20.312 205.115 20.216L205.099 20.2C204.491 20.28 203.467 20.344 200.571 20.472C200.219 20.488 200.107 20.504 199.803 20.552L199.723 18.632C200.267 18.696 200.731 18.728 201.611 18.728C202.971 18.728 204.923 18.648 206.475 18.536C207.035 18.488 207.211 18.456 207.467 18.328L208.459 19.736C208.187 19.88 208.075 19.976 207.627 20.392C206.827 21.128 205.659 22.168 205.115 22.632C204.827 22.872 203.675 23.736 203.355 23.944C202.955 24.216 202.955 24.216 202.699 24.36ZM205.003 30.056C204.715 28.952 204.107 28.376 203.211 28.376C202.635 28.376 202.267 28.664 202.267 29.112C202.267 29.752 202.987 30.12 204.171 30.12C204.475 30.12 204.555 30.12 205.003 30.056Z" fill="white"/>
<path d="M299.354 25.3536C299.549 25.1583 299.549 24.8417 299.354 24.6465L296.172 21.4645C295.976 21.2692 295.66 21.2692 295.464 21.4645C295.269 21.6597 295.269 21.9763 295.464 22.1716L298.293 25L295.464 27.8284C295.269 28.0237 295.269 28.3403 295.464 28.5355C295.66 28.7308 295.976 28.7308 296.172 28.5355L299.354 25.3536ZM245 25.5L299 25.5L299 24.5L245 24.5L245 25.5Z" fill="white"/>
<circle cx="294.5" cy="24.5" r="14" stroke="white"/>
</svg>
